<?xml version="1.0" encoding="UTF-8" standalone="no"?>
<svg
   version="1.1"
   x="0px"
   y="0px"
   viewBox="-461 335 137.33051 157.44325"
   xml:space="preserve"
   id="svg4"
   sodipodi:docname="logo.svg"
   inkscape:version="1.1.2 (08b2f3d93c, 2022-04-05)"
   width="137.33051"
   height="157.44325"
   inkscape:export-filename="/home/catherine/Documents/epiplots/man/figures/logo.png"
   inkscape:export-xdpi="200"
   inkscape:export-ydpi="200"
   xmlns:inkscape="http://www.inkscape.org/namespaces/inkscape"
   xmlns:sodipodi="http://sodipodi.sourceforge.net/DTD/sodipodi-0.dtd"
   xmlns="http://www.w3.org/2000/svg"
   xmlns:svg="http://www.w3.org/2000/svg"><defs
     id="defs8"><clipPath
       clipPathUnits="userSpaceOnUse"
       id="clipPath937"><rect
         style="fill:#7f7f7f;stroke:#0000a0;stroke-width:4.1348;stroke-linejoin:round"
         id="rect939"
         width="191.82005"
         height="60.685112"
         x="-264.99911"
         y="-75.362549" /></clipPath><clipPath
       clipPathUnits="userSpaceOnUse"
       id="clipPath1205"><rect
         style="fill:#7f7f7f;stroke:#0000a0;stroke-width:4.1348;stroke-linejoin:round"
         id="rect1207"
         width="227.4493"
         height="116.42313"
         x="190.47174"
         y="-610.63934" /></clipPath><clipPath
       clipPathUnits="userSpaceOnUse"
       id="clipPath1205-7"><rect
         style="fill:#7f7f7f;stroke:#0000a0;stroke-width:4.1348;stroke-linejoin:round"
         id="rect1207-1"
         width="227.4493"
         height="116.42313"
         x="190.47174"
         y="-610.63934" /></clipPath></defs><sodipodi:namedview
     id="namedview6"
     pagecolor="#ffffff"
     bordercolor="#666666"
     borderopacity="1.0"
     inkscape:pageshadow="2"
     inkscape:pageopacity="0.0"
     inkscape:pagecheckerboard="0"
     showgrid="false"
     inkscape:zoom="3.2703689"
     inkscape:cx="96.013633"
     inkscape:cy="34.094013"
     inkscape:window-width="2537"
     inkscape:window-height="2096"
     inkscape:window-x="72"
     inkscape:window-y="27"
     inkscape:window-maximized="0"
     inkscape:current-layer="svg4"
     fit-margin-top="0"
     fit-margin-left="0"
     fit-margin-right="0"
     fit-margin-bottom="0" /><g
     id="g34790"
     inkscape:export-filename="/home/catherine/Documents/epiboards/man/figures/logo.svg"
     inkscape:export-xdpi="200"
     inkscape:export-ydpi="200"
     transform="translate(-31.759808,407.38128)"><path
       sodipodi:type="star"
       style="fill:#ffffff;stroke:#000000;stroke-width:6.5;stroke-linejoin:round;stroke-miterlimit:4;stroke-dasharray:none;stroke-opacity:1"
       id="path891-7"
       inkscape:flatsided="true"
       sodipodi:sides="6"
       sodipodi:cx="-48.832626"
       sodipodi:cy="-39.528706"
       sodipodi:r1="75.471756"
       sodipodi:r2="38.159691"
       sodipodi:arg1="0.52214479"
       sodipodi:arg2="1.0457436"
       inkscape:rounded="0"
       inkscape:randomized="0"
       transform="translate(-311.74231,45.869049)"
       inkscape:transform-center-x="4.2141042"
       inkscape:transform-center-y="-3.1627129"
       inkscape:export-filename="/home/catherine/Documents/epicentre/covid_herat/www/path891.png"
       inkscape:export-xdpi="200"
       inkscape:export-ydpi="200"
       d="m 16.58263,-1.8879006 -65.305522,37.8308716 -65.415258,-37.6408054 -0.10973,-75.4716766 65.305519,-37.830869 65.415256,37.640803 z" /><path
       d="m -368.79115,-41.801489 c -8.72441,0 -15.68631,7.168576 -16.47254,16.073808 -7.45858,0.916974 -13.15692,7.649856 -13.15692,15.650373 0,8.6037717 6.57319,15.8087411 14.85404,15.8087411 h 31.82975 c 0.68139,0.00964 1.33861,-0.2544647 1.82383,-0.7331349 0.48524,-0.4782286 0.75858,-1.1314903 0.75858,-1.8133746 0,-0.6818002 -0.27334,-1.3346731 -0.75858,-1.8133652 -0.48525,-0.47866716 -1.14249,-0.74279708 -1.82383,-0.73313489 h -31.82975 c -5.3206,0 -9.76109,-4.66118821 -9.76109,-10.71580051 0,-6.055054 4.44711,-10.742979 9.76109,-10.742979 -0.0251,0 0.15487,0.02765 0.5572,0.0531 0.72611,0.04651 1.43733,-0.219807 1.95411,-0.73182 0.51727,-0.512011 0.79061,-1.220555 0.75112,-1.947142 -0.0123,-0.260172 -0.0263,-0.453663 -0.0263,-0.636616 0,-7.103208 5.24557,-12.625653 11.5384,-12.625653 4.40669,0 8.25099,2.65834 10.21217,6.737277 0.29659,0.624328 0.83405,1.10124 1.48956,1.32153 0.65504,0.219807 1.37196,0.164087 1.98534,-0.154436 1.53033,-0.805972 3.17645,-1.246952 4.95994,-1.246952 4.72085,0 8.8473,3.07953 10.6364,7.63941 0.18953,0.483496 0.5221,0.897666 0.95382,1.187203 0.43128,0.289128 0.94067,0.439623 1.46014,0.430838 0.25974,-0.0053 0.4168,0.0053 0.45103,0 5.20615,0.139958 9.52241,4.753741 9.52241,10.716245 0,5.9401527 -4.25358,10.53990851 -9.41627,10.71579706 -0.67566,0.0210603 -1.31491,0.30975311 -1.77777,0.80201764 -0.46244,0.4927095 -0.71076,1.1486745 -0.68926,1.8242656 0.0211,0.6752208 0.30931,1.3144559 0.80201,1.7773202 0.49271,0.4624381 1.14867,0.7103264 1.82382,0.6892662 8.06757,-0.2750893 14.35086,-7.379175 14.35086,-15.8087447 0,-8.160568 -5.92781,-15.011281 -13.60732,-15.70316 -2.79828,-5.486503 -8.16449,-9.363153 -14.50922,-9.363153 -1.81415,0 -3.52093,0.407153 -5.14595,0.98103 -2.84525,-4.324688 -7.40467,-7.264271 -12.73236,-7.53271 -0.009,-3.11e-4 -0.0176,3.12e-4 -0.0263,0 -0.24129,-0.07195 -0.49138,-0.107933 -0.74279,-0.106179 z m 24.6942,42.4404258 c -1.40621,0 -2.54647,1.1402504 -2.54647,2.5464752 0,1.4065547 1.14026,2.5464691 2.54647,2.5464691 1.40656,0 2.54648,-1.1398055 2.54648,-2.5464691 0,-1.4062248 -1.13981,-2.5464752 -2.54648,-2.5464752 z"
       fill="#305699"
       id="path877"
       style="fill:#000000;stroke-width:0.112317" /><path
       d="m 398.28437,-489.48581 c -1.25659,0 -2.30381,0.41863 -3.35108,1.04726 -2.51309,2.09454 -5.65489,3.1418 -8.7967,3.1418 l -16.96556,-0.20931 c -3.14181,0 -5.6549,-2.51309 -6.07433,-5.44561 v -0.62864 c -0.41863,-3.14181 1.67591,-6.07433 4.60763,-6.70217 l 0.83795,-0.20931 c 2.72325,-0.62864 5.6549,-0.62864 8.37814,0.41863 0.83795,0.20931 1.67591,0.20931 2.5131,0 2.09453,-1.04727 2.93252,-3.56036 1.88525,-5.6549 -0.83795,-1.4659 -2.30381,-2.51309 -3.97979,-2.30382 -0.83795,0.20932 -1.4659,0.62864 -2.09453,1.25659 -1.88526,2.09453 -4.39836,3.56036 -7.1216,4.18907 l -0.83795,0.20931 c -3.14181,0.62864 -6.07433,-0.83795 -7.33088,-3.77051 l -0.20931,-0.41863 c -1.04727,-2.93252 0,-6.28361 2.72324,-7.74943 l 17.17485,-9.63469 c 2.93252,-1.67591 6.49288,-2.30381 10.05411,-1.4659 1.67592,0.41863 3.35109,0.20932 4.81779,-0.62864 3.35108,-1.88525 4.39835,-6.07432 2.51308,-9.42541 -1.88525,-3.35108 -6.07432,-4.39835 -9.42541,-2.51309 -1.46588,0.83796 -2.51308,2.09454 -3.1418,3.77051 -1.04727,3.35109 -3.35107,6.07433 -6.49288,7.74944 l -15.08031,8.37814 c -3.77051,2.30381 -8.7967,1.25658 -11.51994,-2.09454 -2.09454,-2.51309 -4.39835,-4.81778 -6.91232,-6.91231 -3.35108,-2.93253 -4.18907,-7.95959 -1.88525,-11.72923 l 7.54015,-12.35793 c 1.67591,-2.72325 4.39835,-4.81778 7.33087,-5.86505 1.25658,-0.41863 2.09454,-1.25658 2.72325,-2.30382 0.83795,-1.25658 1.04727,-2.72324 0.62864,-4.18907 -0.41863,-1.46589 -1.25658,-2.72324 -2.51309,-3.35108 -2.5131,-1.25658 -5.6549,-0.62864 -7.1216,1.88526 -0.62864,1.04727 -1.04727,2.30381 -0.83795,3.77051 0.41862,3.1418 -0.20932,6.49289 -1.88526,9.42541 l -8.58742,14.45247 c -1.67591,2.72325 -5.02706,3.77051 -7.95959,2.51309 h -0.20931 c -2.93252,-1.25658 -4.39835,-4.39835 -3.56036,-7.33087 l 0.62864,-2.30382 c 0.83795,-2.93252 2.51309,-5.65489 5.02706,-7.54015 2.30381,-1.88526 2.72324,-5.02706 1.04727,-7.33087 -0.62864,-0.83796 -1.4659,-1.4659 -2.5131,-1.88526 -2.72324,-0.83795 -5.86505,0.62864 -6.70216,3.35108 v 0.20932 c -0.41863,1.04726 -0.41863,2.30381 0,3.35108 1.04727,2.72325 1.25658,5.86505 0.41863,8.7967 l -0.83796,2.51309 c -0.83795,2.93253 -3.77051,4.81778 -6.91231,4.39835 h -0.41863 c -3.14181,-0.41862 -5.44562,-3.1418 -5.44562,-6.2836 l 0.20931,-16.96557 c 0,-3.35108 1.25659,-6.49288 3.35109,-9.00685 1.04658,-1.46589 1.46521,-2.72254 1.46521,-3.97979 0,-2.93252 -2.51309,-5.44562 -5.44562,-5.23634 -1.25658,0 -2.72324,0.62864 -3.56036,1.4659 -1.04727,1.04726 -1.6759,2.30381 -1.6759,3.77051 0,1.25658 0.41862,2.51309 1.04726,3.35108 2.09454,2.5131 3.14181,5.6549 3.14181,8.7967 l -0.20932,16.96557 c 0,3.1418 -2.51309,5.65489 -5.65489,6.07432 h -0.62864 c -3.14181,0.41863 -6.07433,-1.6759 -6.70217,-4.60763 l -0.20931,-0.83795 c -0.62864,-2.72325 -0.62864,-5.6549 0.41862,-8.37814 0.20932,-0.83796 0.20932,-1.67591 0,-2.5131 -0.62864,-2.09453 -2.72324,-3.35108 -4.81778,-2.93252 -1.04726,0.20931 -2.09453,0.83795 -2.72324,1.88526 -0.62864,1.04726 -0.83795,2.09453 -0.41863,3.1418 0.20931,0.83795 0.62864,1.46589 1.25658,2.09454 2.09454,1.88525 3.56036,4.39834 4.18907,7.12159 l 0.20932,0.83795 c 0.62864,2.93253 -0.83796,5.86505 -3.56036,7.1216 l -0.83796,0.41863 c -2.93252,1.04727 -6.2836,0 -7.74943,-2.72325 l -8.16886,-14.66175 c -1.67591,-2.93252 -2.30382,-6.2836 -1.67591,-9.42541 0.62864,-2.93252 -1.4659,-5.65489 -4.39835,-6.2836 -2.93253,-0.62864 -5.6549,1.46589 -6.28361,4.39835 -0.20931,1.25658 0,2.51309 0.62864,3.56036 0.62864,1.04727 1.4659,1.88525 2.72325,2.30381 2.93252,1.25658 5.44562,3.35108 7.12159,6.07433 l 7.1216,12.77649 c 2.09453,3.97979 1.25658,8.7967 -2.30382,11.51995 -2.51309,2.09453 -5.02706,4.39835 -7.12159,6.91231 -2.93253,3.35109 -7.74943,4.18907 -11.72923,1.88526 l -13.4052,-8.16886 c -2.93252,-1.67591 -5.02706,-4.39835 -6.07433,-7.54016 -0.41862,-1.25658 -1.46589,-2.51309 -2.72324,-3.1418 -1.4659,-0.83795 -3.1418,-1.04727 -4.60763,-0.62864 -1.67591,0.41863 -2.93252,1.4659 -3.77051,2.72325 -1.67591,2.93252 -0.83796,6.70216 2.09453,8.37814 1.25659,0.83795 2.72325,1.04727 4.18907,0.83795 3.35109,-0.62864 6.70217,0 9.42541,1.67591 l 15.70902,9.42541 c 2.72325,1.67591 3.77051,5.02706 2.51309,7.74943 l -0.20931,0.41863 c -1.25658,2.93252 -4.39835,4.39835 -7.33087,3.56036 l -0.83796,-0.20931 c -2.72324,-0.83796 -5.23634,-2.30382 -7.12159,-4.60763 -1.67591,-1.67591 -4.39835,-1.4659 -5.86505,0.20931 -1.04727,1.25658 -1.4659,2.93253 -0.83796,4.39835 0.41863,1.04727 1.4659,1.88526 2.5131,2.09454 0.83795,0.20931 1.67591,0.20931 2.51309,0 2.72325,-0.83796 5.6549,-0.83796 8.37814,-0.20932 l 0.83796,0.20932 c 2.93252,0.83795 4.81778,3.77051 4.39835,6.91231 l -0.41795,1.25727 c -0.41863,3.1418 -3.1418,5.44561 -6.28361,5.23634 l -16.96556,-0.20932 c -3.1418,0 -6.28361,-1.25658 -8.7967,-3.35108 -1.04727,-0.83795 -2.09454,-1.25658 -3.35108,-1.25658 -2.93253,0 -5.44562,2.30381 -5.44562,5.23633 0,2.93253 2.30382,5.44562 5.23634,5.44562 1.25658,0 2.51309,-0.41863 3.35108,-1.04726 2.51309,-2.09454 5.6549,-3.14181 8.7967,-3.14181 l 14.45247,0.20931 c 4.39835,0 8.16886,3.35109 8.7967,7.74944 0.41863,3.14181 1.25658,6.49288 2.30382,9.42541 1.46589,4.18907 -0.20932,8.7967 -4.18908,11.10138 l -13.82375,7.54016 c -2.93253,1.6759 -6.28361,2.30382 -9.63469,1.4659 -3.14181,-0.62865 -6.28361,1.25658 -7.1216,4.39834 -0.41863,1.4659 -0.20931,3.1418 0.41863,4.60764 1.67591,2.93252 5.44562,3.97979 8.37814,2.3038 1.25658,-0.62863 2.30381,-1.88525 2.72325,-3.35107 1.25658,-3.1418 3.35108,-5.86505 6.2836,-7.33087 l 15.9183,-8.79671 c 2.72324,-1.46589 6.07433,-0.83795 7.95958,1.67591 l 0.20932,0.41862 c 1.88525,2.51311 1.6759,6.07434 -0.62864,8.16887 l -0.62864,0.62864 c -2.09454,2.09454 -4.60763,3.35109 -7.54016,3.77052 -0.83795,0.20931 -1.67591,0.62863 -2.30381,1.25658 -1.4659,1.88525 -1.25658,4.39835 0.62864,5.86505 0.62864,0.62863 1.46589,0.83795 2.30381,0.83795 1.04727,0 2.30382,-0.41863 3.14181,-1.25658 0.62864,-0.62864 1.04726,-1.25658 1.25658,-2.09454 0.62864,-2.72325 2.09453,-5.23634 4.18907,-7.33087 l 0.62864,-0.62864 c 2.30381,-2.09454 5.86505,-2.30382 8.16886,-0.41863 l 0.62864,0.41863 c 2.30382,1.88525 2.93252,5.23634 1.4659,7.95958 l -9.42541,15.70902 c -1.67591,2.72325 -4.39835,4.81778 -7.54016,5.86505 -1.46589,0.41863 -2.72324,1.6759 -3.56036,2.93252 -1.46589,2.72325 -0.41863,6.07434 2.09454,7.95959 2.72324,1.88525 6.70216,1.04727 8.37814,-1.67591 0,0 0,-0.20932 0.20931,-0.20932 0.83796,-1.25658 1.04727,-2.72323 0.83796,-4.18907 -0.62864,-3.35107 0,-6.70216 1.67591,-9.42541 l 9.42541,-15.91829 c 1.6759,-2.72325 5.02705,-3.77052 7.74943,-2.5131 2.93252,1.25659 4.39835,4.39835 3.56036,7.33088 l -0.41863,1.67591 c -0.83795,2.72324 -2.51309,5.23634 -4.81778,7.12159 -0.83795,0.62864 -1.25658,1.4659 -1.67591,2.51309 -0.62864,2.30382 0.62864,4.81779 2.93253,5.65491 1.25658,0.41862 2.51309,0.20931 3.56036,-0.41863 1.04727,-0.62864 1.88525,-1.67591 2.30381,-2.93252 0.20932,-0.83796 0.20932,-1.88527 0,-2.72325 -1.04727,-2.72325 -1.04727,-5.86506 -0.20931,-8.58743 l 0.41863,-1.6759 c 0.83795,-2.72325 3.1418,-4.39836 6.07432,-4.60763 h 1.04727 0.41863 c 3.1418,0.41862 5.44562,3.14181 5.23634,6.28361 l -0.41863,18.43191 c 0,3.35108 -1.25658,6.49288 -3.56036,9.00685 -2.30382,2.5131 -2.09454,6.2836 0.41863,8.58742 1.04726,0.83796 2.30381,1.4659 3.77051,1.4659 1.67591,0.20931 3.1418,-0.41863 4.39835,-1.4659 1.25655,-1.04727 2.09454,-2.72325 2.09454,-4.39835 0,-1.46589 -0.41863,-2.93252 -1.4659,-3.97979 -2.09454,-2.51309 -3.35108,-5.65489 -3.35108,-9.00686 l 0.20931,-15.91828 c 0,-4.39836 3.35108,-8.16888 7.74943,-8.79672 3.35109,-0.41862 6.49289,-1.25657 9.63469,-2.51309 4.18907,-1.4659 9.00685,0.20931 11.10139,4.18908 l 6.91232,12.56721 c 1.6759,2.93252 2.09453,6.07433 1.46589,9.42541 -0.62864,2.93252 1.4659,5.65489 4.39835,6.28361 2.93253,0.62863 5.6549,-1.4659 6.28361,-4.39836 0.41863,-2.51309 -0.83796,-5.02705 -3.35108,-6.07432 -2.93253,-1.25658 -5.44562,-3.35109 -7.1216,-6.28361 l -8.37814,-14.87103 c -1.4659,-2.72324 -0.62864,-6.07433 1.67591,-7.95958 l 0.62864,-0.41863 c 2.51309,-1.88525 6.07432,-1.4659 8.16886,0.62864 l 2.09384,2.09174 c 2.09453,2.09454 3.35108,4.60763 3.77051,7.54016 0.20931,0.83795 0.62864,1.67591 1.25658,2.30381 1.4659,1.25659 3.77051,1.25659 5.44562,0 0.83795,-0.83794 1.46589,-1.88526 1.46589,-2.93252 0,-1.04727 -0.41862,-2.30382 -1.25658,-3.14181 -0.62864,-0.62863 -1.25658,-1.04726 -2.09453,-1.25657 -2.72325,-0.62865 -5.44562,-2.09454 -7.33088,-3.9798 l -0.41862,-0.62796 c -2.09454,-2.30382 -2.30382,-5.65489 -0.41863,-8.16886 l 0.62864,-0.83796 c 1.88525,-2.51309 5.44562,-3.1418 8.16886,-1.4659 l 14.45247,8.79671 c 2.72324,1.67591 5.02706,4.39834 6.07433,7.33088 0.41863,1.25657 1.25658,2.3038 2.51309,2.93252 2.5131,1.4659 5.6549,0.62863 7.1216,-1.67591 1.6759,-2.5131 1.04727,-5.86505 -1.4659,-7.54015 -1.04727,-0.62864 -2.30382,-0.83796 -3.56036,-0.62864 -3.1418,0.41862 -6.49289,-0.20932 -9.21613,-1.88527 l -14.66175,-8.79669 c -2.72324,-1.6759 -3.77051,-5.02706 -2.51309,-7.74943 0,-0.20932 0.20931,-0.41863 0.20931,-0.62865 1.25658,-2.93252 4.39835,-4.39834 7.33087,-3.56035 l 0.83796,0.20931 c 2.72324,0.83795 5.23634,2.30381 7.12159,4.60763 0.62864,0.62864 1.25659,1.04727 2.09454,1.46589 2.09453,0.41863 4.18907,-0.62864 4.81778,-2.72324 0.41863,-1.04726 0.20931,-2.30382 -0.20931,-3.1418 -0.83796,-1.88526 -2.93253,-2.72325 -4.81778,-1.88526 -2.72325,0.83795 -5.6549,0.83795 -8.37815,0 l -0.83795,-0.20931 c -2.93252,-0.83796 -4.81778,-3.77052 -4.39835,-6.91232 l 0.20931,-1.04727 c 0.41863,-3.14181 3.14181,-5.23634 6.07433,-5.23634 l 16.75628,0.20932 c 3.35109,0 6.70217,1.25658 9.21614,3.35107 2.30381,1.88527 5.65489,1.67592 7.54014,-0.62863 1.67592,-2.09454 1.67592,-5.02706 -0.20931,-7.1216 -1.04931,-1.46385 -2.51518,-2.09244 -3.98171,-2.09244 z"
       fill="#305699"
       id="path1088-1"
       style="stroke-width:0.174544"
       clip-path="url(#clipPath1205-7)"
       transform="matrix(0.6590958,0,0,-0.6590958,-565.43974,-325.27043)" /><path
       style="fill:none;stroke:#686868;stroke-width:2.55507;stroke-linecap:round;stroke-linejoin:miter;stroke-miterlimit:4;stroke-dasharray:none;stroke-opacity:1"
       d="m -381.8784,-17.137226 h 28.29297"
       id="path8043" /><path
       style="fill:none;stroke:#686868;stroke-width:2.55507;stroke-linecap:round;stroke-linejoin:miter;stroke-miterlimit:4;stroke-dasharray:none;stroke-opacity:1"
       d="m -365.63736,-8.0288636 h 28.29297"
       id="path8043-9" /><circle
       style="fill:#ffffff;fill-opacity:1;stroke:#686868;stroke-width:2.55507;stroke-linejoin:round;stroke-miterlimit:4;stroke-dasharray:none;stroke-opacity:1"
       id="path1474-7-5"
       cx="-371.60559"
       cy="-17.137226"
       r="3.5201545" /><circle
       style="fill:#ffffff;fill-opacity:1;stroke:#686868;stroke-width:2.55507;stroke-linejoin:round;stroke-miterlimit:4;stroke-dasharray:none;stroke-opacity:1"
       id="path1474-7-5-7"
       cx="-340.9057"
       cy="-8.0288639"
       r="3.5201545" /><text
       xml:space="preserve"
       style="font-style:normal;font-variant:normal;font-weight:bold;font-stretch:normal;font-size:9.94871px;line-height:1.25;font-family:Arial;-inkscape-font-specification:'Arial, Bold';font-variant-ligatures:normal;font-variant-caps:normal;font-variant-numeric:normal;font-variant-east-asian:normal;fill:#000000;fill-opacity:1;stroke:none;stroke-width:0.248719"
       x="-384.26379"
       y="14.559551"
       id="text22359-1"><tspan
         sodipodi:role="line"
         id="tspan22357-8"
         x="-384.26379"
         y="14.559551"
         style="font-style:normal;font-variant:normal;font-weight:bold;font-stretch:normal;font-size:9.94871px;font-family:Arial;-inkscape-font-specification:'Arial, Bold';font-variant-ligatures:normal;font-variant-caps:normal;font-variant-numeric:normal;font-variant-east-asian:normal;fill:#ffffff;stroke-width:0.248719">epiboards</tspan></text></g></svg>
